<svg width="104" height="103" viewBox="0 0 104 103" fill="none" xmlns="http://www.w3.org/2000/svg">
<path d="M68.2723 67.7717C71.0803 64.9542 71.4595 60.7782 69.1171 58.431C66.7747 56.0839 62.594 56.4679 59.7812 59.2806C56.9733 62.0934 52.7925 62.4726 50.4501 60.1302C48.1078 57.7879 48.487 53.6071 51.2997 50.7991M51.2997 50.7991L49.6006 49.1M51.2997 50.7991C52.8885 49.2056 54.9141 48.3992 56.8005 48.4136M69.9667 69.4661L68.2675 67.7669C66.3475 69.6917 63.7796 70.4789 61.6004 70.0277M35.7143 46.1192C37.613 46.1192 39.469 45.5562 41.0477 44.5013C42.6264 43.4465 43.8569 41.9472 44.5835 40.193C45.31 38.4389 45.5002 36.5087 45.1297 34.6465C44.7593 32.7843 43.845 31.0737 42.5025 29.7312C41.1599 28.3886 39.4494 27.4743 37.5872 27.1039C35.725 26.7335 33.7948 26.9236 32.0406 27.6502C30.2865 28.3768 28.7872 29.6072 27.7323 31.1859C26.6775 32.7646 26.1144 34.6206 26.1144 36.5193" stroke="#C14600" stroke-width="7" stroke-linecap="round"/>
<path d="M71.8579 16.5946C64.4372 9.17867 60.7317 5.46831 55.9173 4.09073C51.103 2.70834 45.9911 3.88913 35.772 6.2507L29.8777 7.60908C21.2762 9.59146 16.9754 10.585 14.0283 13.5274C11.0811 16.4698 10.0971 20.7801 8.10993 29.3768L6.74674 35.2711C4.38997 45.495 3.20919 50.6022 4.58677 55.4165C5.96915 60.2308 9.67951 63.9364 17.0954 71.3523L25.8793 80.1362C38.7912 93.0528 45.2423 99.4992 53.2582 99.4992C61.2789 99.4992 67.73 93.048 80.637 80.141C93.5489 67.2291 100 60.778 100 52.7573C100 46.3158 95.8337 40.8823 87.501 32.3" stroke="#C14600" stroke-width="7" stroke-linecap="round"/>
</svg>
