<svg width="62" height="62" viewBox="0 0 62 62" fill="none" xmlns="http://www.w3.org/2000/svg">
<rect width="62" height="62" rx="8" fill="#FF9D23"/>
<path d="M18 28.5L21 18.375H43L46 28.5M43 39.75C42.2044 39.75 41.4413 39.3944 40.8787 38.7615C40.3161 38.1286 40 37.2701 40 36.375C40 35.4799 40.3161 34.6214 40.8787 33.9885C41.4413 33.3556 42.2044 33 43 33C43.7956 33 44.5587 33.3556 45.1213 33.9885C45.6839 34.6214 46 35.4799 46 36.375C46 37.2701 45.6839 38.1286 45.1213 38.7615C44.5587 39.3944 43.7956 39.75 43 39.75ZM21 39.75C20.2044 39.75 19.4413 39.3944 18.8787 38.7615C18.3161 38.1286 18 37.2701 18 36.375C18 35.4799 18.3161 34.6214 18.8787 33.9885C19.4413 33.3556 20.2044 33 21 33C21.7956 33 22.5587 33.3556 23.1213 33.9885C23.6839 34.6214 24 35.4799 24 36.375C24 37.2701 23.6839 38.1286 23.1213 38.7615C22.5587 39.3944 21.7956 39.75 21 39.75ZM45.84 17.25C45.44 15.945 44.32 15 43 15H21C19.68 15 18.56 15.945 18.16 17.25L14 30.75V48.75C14 49.3467 14.2107 49.919 14.5858 50.341C14.9609 50.7629 15.4696 51 16 51H18C18.5304 51 19.0391 50.7629 19.4142 50.341C19.7893 49.919 20 49.3467 20 48.75V46.5H44V48.75C44 49.3467 44.2107 49.919 44.5858 50.341C44.9609 50.7629 45.4696 51 46 51H48C48.5304 51 49.0391 50.7629 49.4142 50.341C49.7893 49.919 50 49.3467 50 48.75V30.75L45.84 17.25Z" fill="white"/>
</svg>
