<svg width="62" height="62" viewBox="0 0 62 62" fill="none" xmlns="http://www.w3.org/2000/svg">
<rect width="62" height="62" rx="8" fill="#FF9D23"/>
<path d="M12.709 43.4583V17.8333H16.1257V34.9166H29.7923V21.2499H43.459C45.3382 21.2499 46.9468 21.919 48.285 23.2572C49.6232 24.5954 50.2923 26.2041 50.2923 28.0833V43.4583H46.8757V38.3333H16.1257V43.4583H12.709ZM22.959 33.2083C21.5354 33.2083 20.3253 32.71 19.3288 31.7135C18.3322 30.7169 17.834 29.5069 17.834 28.0833C17.834 26.6596 18.3322 25.4496 19.3288 24.453C20.3253 23.4565 21.5354 22.9583 22.959 22.9583C24.3826 22.9583 25.5927 23.4565 26.5892 24.453C27.5857 25.4496 28.084 26.6596 28.084 28.0833C28.084 29.5069 27.5857 30.7169 26.5892 31.7135C25.5927 32.71 24.3826 33.2083 22.959 33.2083ZM33.209 34.9166H46.8757V28.0833C46.8757 27.1437 46.5414 26.3396 45.8729 25.6711C45.2043 25.0026 44.3997 24.6677 43.459 24.6666H33.209V34.9166ZM22.959 29.7916C23.443 29.7916 23.849 29.6276 24.177 29.2996C24.505 28.9716 24.6685 28.5661 24.6673 28.0833C24.6662 27.6004 24.5022 27.1949 24.1753 26.8669C23.8485 26.5389 23.443 26.3749 22.959 26.3749C22.475 26.3749 22.0695 26.5389 21.7427 26.8669C21.4158 27.1949 21.2518 27.6004 21.2507 28.0833C21.2495 28.5661 21.4135 28.9722 21.7427 29.3013C22.0718 29.6304 22.4772 29.7939 22.959 29.7916Z" fill="white"/>
</svg>
