<svg width="116" height="117" viewBox="0 0 116 117" fill="none" xmlns="http://www.w3.org/2000/svg">
<path d="M87.5833 52.5792V47H88.8333V108.667H87.5833V62.6084V60.2181L85.2535 59.6842C81.673 58.8637 78.3748 57.5639 75.3447 55.7902C72.3207 54.02 69.7209 51.8563 67.5278 49.2977L63.5169 44.6183L62.3083 50.6617L59.4083 65.1617L59.0841 66.7825L60.281 67.9224L69.5 76.7024V108.667H65.8333V82.6667V81.381L64.9023 80.4943L54.7523 70.8276L50.9186 67.1765L49.7565 72.3415L41.5833 108.667H37.4847L51.6336 37.1162C51.6344 37.1122 51.6353 37.1082 51.6361 37.1042C51.9909 35.4007 52.7106 34.3769 53.6645 33.7173C54.911 32.8554 56.095 32.498 57.2698 32.5C58.6744 32.5025 59.9185 32.8036 61.0493 33.3806C62.0858 33.9094 62.9468 34.7084 63.6406 35.8708L63.6563 35.8972L63.6727 35.9234L68.5011 43.6488C68.502 43.6502 68.5028 43.6516 68.5037 43.653C70.1392 46.2869 72.2354 48.6433 74.7625 50.7273C77.3839 52.8892 80.3839 54.463 83.7304 55.4554L87.5833 56.5979V52.5792ZM65.2645 24.0834L65.2572 24.0834H65.25C63.3929 24.0834 61.8794 23.4577 60.5467 22.1249L58.4253 24.2462L60.5467 22.1249C59.2138 20.792 58.5856 19.2758 58.5833 17.4131C58.5811 15.5564 59.2064 14.0468 60.5412 12.7188L58.4253 10.592L60.5412 12.7188C61.8848 11.3821 63.4043 10.7545 65.2573 10.75C67.0987 10.7455 68.6127 11.3679 69.9582 12.7134C71.3036 14.0587 71.9234 15.57 71.9167 17.4058C71.9099 19.2593 71.2818 20.7853 69.9456 22.1376L72.0795 24.2462L69.9456 22.1376C68.6295 23.4694 67.1268 24.0924 65.2645 24.0834ZM38.8862 33.2069L33.5177 60.4468L24.4217 58.7596L29.6868 31.4407L38.8862 33.2069Z" stroke="#C14600" stroke-width="6"/>
</svg>
